/* XPM */
static char * gwxp_xpm[] = {
"40 40 40 1",
" 	c None",
".	c #000000",
"+	c #080808",
"@	c #0F0F0F",
"#	c #2B2455",
"$	c #2B49AA",
"%	c #2B49FF",
"&	c #556DFF",
"*	c #1F1F1F",
"=	c #363636",
"-	c #3E3E3E",
";	c #55B6AA",
">	c #2B6D55",
",	c #2B92AA",
"'	c #5592FF",
")	c #55B6FF",
"!	c #5592AA",
"~	c #5549FF",
"{	c #2B6DAA",
"]	c #171717",
"^	c #5549AA",
"/	c #80DBFF",
"(	c #80B6FF",
"_	c #8092FF",
":	c #556DAA",
"<	c #AAB6FF",
"[	c #2B9255",
"}	c #2B4955",
"|	c #55DBAA",
"1	c #AADBFF",
"2	c #002455",
"3	c #80DBAA",
"4	c #8092AA",
"5	c #80B6AA",
"6	c #2B24AA",
"7	c #004955",
"8	c #006D55",
"9	c #2E2E2E",
"0	c #272727",
"a	c #004900",
"..++...@..++@.+++#$%%&&$#.++++.+*=+..@.+",
"+...-.....+@.++&;>,')''!!'~.+..+.+.+=.+.",
"+...++*.+...+&'{)),,''),!,,{$.+..++++++@",
"....+@+@]+.^''''',/))')!''!!{&++++..@*.+",
"++++......&'''!!(/((!_(''!,!{{:@...+....",
"+++.+++++&''!;//;!((((((,!,!,{{{#++.+..@",
"...+.*+.&''))((/;/(((((!;;)!{>{{:....+++",
".+.+@*.^''))((;,/<<<<(;((;!!>[>::}..+.+.",
".*.*.].:,'))(!!|1<<<<(!(!!!!>[,{{}2+...+",
"......&!!)!;!;/31<(<(4(!!!!>;!>>}}>#+...",
"..+..${!!)!!|/(5(;554!!!!!{!!{>>>>>}.+.+",
"++=++{{!!!;;;(55!>!>>!!>>!{!{,>>>>>}6.@.",
".@].$}!:{};/;55!!>[>!!![[>}}}{>>{>>}}...",
"+...{7{{:!;(5!555!>!;;[[[>>}>>>>}>>>}2.@",
"+.+#{8{{:}!!!/5!![;(5!![[>>>}}}}}>>}}}@+",
"++.{>{{{{::!!!!;/(!!!::>>>>>}}>}}>>>}}++",
"++.:>{{:{!!!!!!;!!!!:::!>>>>}}>}}}}>}}2+",
"+.#}>{{{}:::9}!}:::!::}}}}>}}}}}}}0}a00.",
"]+$>7{${{{}}}>>}}}>>}}}}>>}}}}}}}}90}90.",
"+.}>{$${{}#}>>!!}>}>>>}>>>>}}}}9}}9*000@",
"..}{}$$$}}{}>>!{{>}}>>{>}>>}}}}9990000*]",
"@]}}}$$}}}}}>}}}}}}}9}}}}}}}}}990*9*0*]]",
"-6}}}#}}}}}}}}}9}}}}}}}}}}}999990*0**]]@",
"+}}#}}}}}##}}}}}}>}}}}0*0}900*00**]]]]]@",
"]}}}}}#}}#}}}}>}>}}}}}}0*000****]*]]]@@@",
".}}}}}#}##09=}}}9}}}9}990****]*]**@]]@@+",
".}#9}}}#92099}9}}}9}00000**]]]]*]]]@@+@+",
"+}#*}}}00**0}00999}9090*000]]]]]]]@++@@+",
".#00}}00****9000*}09000***]]@@@@@@@++@@@",
".00099#9*****000*09****]]]]@@@@@@@+++@@+",
".00000*0*]]***0]****]]]]@@@@++@@@++++@@@",
".090*0******]]]**]@]]]]@@@@+++++@++@@@@@",
"+*00**]]]]]]]]]*]]]]]@@@@@@@@++@+@@@@@@@",
".]**]*]]]]]]]@@]]@]@@@@@@@@+@+@@@@@@@@@@",
".]*]]]]]]]]]@@@@@@++++@@@@@@@+@@@@@@@@@+",
".+@@@]@]@@@@+@+@+@]@++]++@++++++++@@++++",
".@]@]]]@@@]@@+@*@+]+*+]++++++@@+++++++++",
".]]]@@]@@@@@@@@@@]@@@@+@+@++++++@@++++++",
".]]]@]]]@@]@]]@*]]@]+@@+@+@@+++++++++@++",
".]]]*]]@@@@]@]]@*@@*@]@+@@]]+]+++@+@++++"};
